<svg xmlns="http://www.w3.org/2000/svg" xmlns:xlink="http://www.w3.org/1999/xlink" width="623" zoomAndPan="magnify" viewBox="0 0 467.25 119.249998" height="159" preserveAspectRatio="xMidYMid meet" version="1.0"><defs><g/><clipPath id="8cd99c7994"><path d="M 65 25.527344 L 120 25.527344 L 120 94 L 65 94 Z M 65 25.527344 " clip-rule="nonzero"/></clipPath><clipPath id="c4b7857250"><path d="M 1.085938 44 L 85 44 L 85 77 L 1.085938 77 Z M 1.085938 44 " clip-rule="nonzero"/></clipPath></defs><g clip-path="url(#8cd99c7994)"><path fill="#ffffff" d="M 65.726562 53.28125 C 65.804688 49.957031 66.429688 45.730469 66.429688 45.730469 C 66.429688 45.730469 68.660156 25.789062 75.152344 25.671875 C 81.640625 25.554688 83.792969 44.675781 83.792969 44.675781 L 82.699219 44.675781 L 82.699219 44.089844 C 82.699219 44.089844 81.800781 38.183594 79.726562 32.242188 C 77.652344 26.296875 75.074219 26.804688 75.074219 26.804688 C 67.253906 28.410156 66.78125 57.933594 66.78125 57.933594 L 65.570312 57.933594 C 65.53125 57.972656 65.648438 56.5625 65.726562 53.28125 Z M 65.53125 63.679688 C 65.53125 63.679688 66.234375 91.679688 74.644531 93.832031 C 74.644531 93.832031 78.554688 94.964844 81.289062 86.441406 C 84.027344 77.914062 83.753906 75.570312 83.753906 75.570312 L 82.386719 75.53125 C 82.386719 75.53125 82.113281 80.457031 80.390625 85.617188 C 78.671875 90.78125 76.675781 92.109375 76.675781 92.109375 C 76.675781 92.109375 75.230469 93.480469 73.625 92.109375 C 72.023438 90.742188 70.183594 87.261719 68.972656 81.824219 C 67.761719 76.390625 66.546875 66.496094 66.625 63.132812 C 66.703125 59.769531 66.625 63.132812 66.625 63.132812 Z M 91.886719 44.519531 L 92.90625 44.519531 C 92.90625 44.519531 94.976562 34.195312 97.792969 33.765625 C 100.609375 33.335938 102.875 44.871094 102.875 44.871094 L 104.128906 44.871094 C 104.128906 44.871094 102.523438 32.984375 98.183594 32.554688 C 93.84375 32.125 91.964844 42.917969 91.886719 44.519531 Z M 98.183594 89.921875 C 102.484375 89.488281 104.128906 77.601562 104.128906 77.601562 L 102.875 77.601562 C 102.875 77.601562 100.609375 89.175781 97.792969 88.707031 C 94.976562 88.277344 92.90625 77.953125 92.90625 77.953125 L 91.886719 77.953125 C 91.964844 79.558594 93.882812 90.351562 98.183594 89.921875 Z M 111.988281 44.519531 L 113.199219 44.519531 C 113.199219 44.519531 114.253906 38.027344 115.859375 37.324219 C 115.859375 37.324219 116.445312 37.050781 117.34375 39.554688 C 118.246094 42.054688 118.597656 44.714844 118.597656 44.714844 L 119.847656 44.714844 C 119.847656 44.714844 118.558594 35.800781 115.9375 36.152344 C 113.277344 36.503906 112.730469 40.453125 111.988281 44.519531 Z M 115.898438 86.285156 C 118.519531 86.636719 119.808594 77.71875 119.808594 77.71875 L 118.558594 77.71875 C 118.558594 77.71875 118.207031 80.417969 117.304688 82.882812 C 116.40625 85.34375 115.820312 85.109375 115.820312 85.109375 C 114.214844 84.40625 113.160156 77.914062 113.160156 77.914062 L 111.949219 77.914062 C 112.730469 81.980469 113.277344 85.929688 115.898438 86.285156 Z M 115.898438 86.285156 " fill-opacity="1" fill-rule="nonzero"/></g><g clip-path="url(#c4b7857250)"><path fill="#ffffff" d="M 84.300781 59.769531 C 84.300781 65.832031 83.871094 71.503906 83.089844 76.390625 L 75.621094 76.390625 C 75.152344 75.101562 74.761719 73.847656 74.410156 72.636719 C 73.546875 69.703125 73.039062 67.003906 72.765625 64.582031 L 66.195312 64.347656 L 3.824219 62 L 1.714844 61.375 L 3.980469 60.59375 L 66.15625 58.128906 L 72.6875 57.855469 C 73 54.023438 73.976562 51.128906 75.074219 49.015625 C 75.894531 47.375 76.792969 46.242188 77.457031 45.496094 C 78.085938 44.792969 78.515625 44.480469 78.515625 44.480469 L 83.324219 44.480469 C 83.910156 49.09375 84.300781 54.257812 84.300781 59.769531 Z M 84.300781 59.769531 " fill-opacity="1" fill-rule="nonzero"/><path fill="#ffffff" d="M 83.792969 59.769531 C 83.792969 65.285156 83.441406 70.796875 82.621094 76.273438 C 82.777344 76.15625 82.933594 76.039062 83.089844 75.921875 C 80.585938 75.921875 78.125 75.921875 75.621094 75.921875 C 75.777344 76.039062 75.933594 76.15625 76.089844 76.273438 C 74.761719 72.480469 73.703125 68.570312 73.273438 64.582031 C 73.234375 64.308594 73.078125 64.109375 72.804688 64.109375 C 70.613281 64.03125 68.425781 63.953125 66.195312 63.875 C 65.414062 63.835938 64.632812 63.835938 63.851562 63.796875 C 61.894531 63.71875 59.902344 63.640625 57.945312 63.5625 C 55.128906 63.445312 52.351562 63.367188 49.539062 63.25 C 46.214844 63.132812 42.890625 63.015625 39.605469 62.859375 C 36.125 62.742188 32.683594 62.585938 29.203125 62.46875 C 25.957031 62.351562 22.671875 62.234375 19.425781 62.117188 C 16.691406 62 13.953125 61.921875 11.214844 61.804688 C 9.378906 61.726562 7.539062 61.648438 5.703125 61.609375 C 5.234375 61.609375 4.722656 61.570312 4.253906 61.570312 C 4.136719 61.570312 4.019531 61.570312 3.902344 61.570312 C 3.863281 61.570312 3.863281 61.570312 3.824219 61.570312 C 4.097656 61.609375 3.707031 61.53125 3.589844 61.492188 C 3.003906 61.296875 2.417969 61.140625 1.832031 60.945312 C 1.832031 61.257812 1.832031 61.570312 1.832031 61.882812 C 2.417969 61.6875 3.042969 61.453125 3.628906 61.257812 C 3.746094 61.21875 3.902344 61.179688 3.980469 61.140625 C 4.058594 61.101562 4.019531 61.140625 3.941406 61.140625 C 3.941406 61.140625 3.980469 61.140625 4.019531 61.140625 C 4.332031 61.140625 4.605469 61.101562 4.917969 61.101562 C 6.484375 61.023438 8.007812 60.984375 9.574219 60.90625 C 12.113281 60.789062 14.65625 60.710938 17.199219 60.59375 C 20.367188 60.476562 23.496094 60.355469 26.660156 60.199219 C 30.101562 60.082031 33.542969 59.925781 36.984375 59.808594 C 40.347656 59.691406 43.710938 59.535156 47.113281 59.417969 C 50.085938 59.300781 53.058594 59.183594 55.988281 59.066406 C 58.21875 58.988281 60.410156 58.910156 62.636719 58.792969 C 63.734375 58.753906 64.867188 58.714844 65.960938 58.675781 C 67.839844 58.597656 69.714844 58.519531 71.59375 58.441406 C 71.945312 58.441406 72.296875 58.402344 72.648438 58.402344 C 72.921875 58.402344 73.117188 58.167969 73.117188 57.933594 C 73.390625 54.492188 74.289062 51.050781 76.128906 48.117188 C 76.558594 47.453125 77.027344 46.789062 77.535156 46.203125 C 77.808594 45.890625 78.085938 45.613281 78.359375 45.339844 C 78.476562 45.261719 78.554688 45.144531 78.671875 45.066406 C 78.945312 44.832031 78.554688 45.183594 78.476562 45.066406 C 78.515625 45.105469 79.179688 45.066406 79.21875 45.066406 C 79.726562 45.066406 80.234375 45.066406 80.703125 45.066406 C 81.5625 45.066406 82.386719 45.066406 83.246094 45.066406 C 83.089844 44.949219 82.933594 44.832031 82.777344 44.714844 C 83.519531 49.644531 83.792969 54.6875 83.792969 59.769531 C 83.792969 60.394531 84.769531 60.394531 84.769531 59.769531 C 84.769531 54.609375 84.457031 49.484375 83.753906 44.402344 C 83.714844 44.207031 83.480469 44.050781 83.285156 44.050781 C 82.503906 44.050781 81.722656 44.050781 80.9375 44.050781 C 80.15625 44.050781 79.296875 43.972656 78.515625 44.050781 C 78.003906 44.089844 77.535156 44.753906 77.222656 45.066406 C 76.675781 45.652344 76.207031 46.28125 75.777344 46.90625 C 74.800781 48.3125 74.054688 49.878906 73.507812 51.480469 C 72.765625 53.554688 72.375 55.703125 72.179688 57.894531 C 72.335938 57.738281 72.492188 57.582031 72.648438 57.425781 C 70.457031 57.503906 68.308594 57.582031 66.117188 57.699219 C 65.335938 57.738281 64.515625 57.777344 63.734375 57.777344 C 61.738281 57.855469 59.742188 57.933594 57.789062 58.011719 C 54.972656 58.128906 52.15625 58.246094 49.34375 58.363281 C 46.019531 58.480469 42.695312 58.636719 39.371094 58.753906 C 35.890625 58.871094 32.449219 59.027344 28.96875 59.144531 C 25.722656 59.261719 22.476562 59.417969 19.230469 59.535156 C 16.535156 59.652344 13.796875 59.730469 11.097656 59.847656 C 9.300781 59.925781 7.5 60.003906 5.703125 60.042969 C 4.917969 60.082031 4.136719 60.042969 3.355469 60.277344 C 2.769531 60.476562 2.183594 60.710938 1.558594 60.90625 C 1.125 61.0625 1.085938 61.6875 1.558594 61.84375 C 2.183594 62.039062 2.769531 62.195312 3.394531 62.390625 C 3.550781 62.429688 3.707031 62.46875 3.863281 62.507812 C 4.175781 62.546875 4.488281 62.546875 4.761719 62.546875 C 6.328125 62.585938 7.890625 62.664062 9.457031 62.703125 C 11.996094 62.78125 14.539062 62.898438 17.082031 62.976562 C 20.25 63.09375 23.417969 63.210938 26.582031 63.328125 C 30.023438 63.445312 33.503906 63.601562 36.945312 63.71875 C 40.347656 63.835938 43.710938 63.992188 47.113281 64.109375 C 50.085938 64.230469 53.058594 64.347656 56.027344 64.464844 C 58.257812 64.542969 60.449219 64.621094 62.675781 64.699219 C 63.773438 64.738281 64.90625 64.777344 66 64.816406 C 67.917969 64.894531 69.792969 64.972656 71.710938 65.011719 C 72.0625 65.011719 72.414062 65.050781 72.765625 65.050781 C 72.609375 64.894531 72.453125 64.738281 72.296875 64.582031 C 72.765625 68.648438 73.78125 72.636719 75.152344 76.507812 C 75.230469 76.703125 75.386719 76.859375 75.621094 76.859375 C 78.125 76.859375 80.585938 76.859375 83.089844 76.859375 C 83.285156 76.859375 83.519531 76.703125 83.558594 76.507812 C 84.417969 70.953125 84.769531 65.363281 84.769531 59.769531 C 84.769531 59.144531 83.792969 59.144531 83.792969 59.769531 Z M 83.792969 59.769531 " fill-opacity="1" fill-rule="nonzero"/></g><path fill="#ffffff" d="M 78.515625 44.558594 C 76.714844 44.558594 74.917969 44.558594 73.117188 44.558594 C 68.855469 44.558594 64.554688 44.597656 60.292969 44.597656 C 55.089844 44.597656 49.929688 44.636719 44.726562 44.636719 C 40.230469 44.636719 35.773438 44.675781 31.277344 44.675781 C 29.125 44.675781 26.933594 44.636719 24.746094 44.714844 C 24.707031 44.714844 24.667969 44.714844 24.667969 44.714844 C 23.417969 44.714844 23.417969 46.671875 24.667969 46.671875 C 26.464844 46.671875 28.265625 46.671875 30.0625 46.671875 C 34.328125 46.671875 38.628906 46.632812 42.890625 46.632812 C 48.089844 46.632812 53.253906 46.59375 58.453125 46.59375 C 62.949219 46.59375 67.410156 46.554688 71.90625 46.554688 C 74.054688 46.554688 76.246094 46.59375 78.4375 46.515625 C 78.476562 46.515625 78.515625 46.515625 78.515625 46.515625 C 79.765625 46.515625 79.765625 44.558594 78.515625 44.558594 Z M 78.515625 44.558594 " fill-opacity="1" fill-rule="nonzero"/><path fill="#ffffff" d="M 77.105469 48.039062 C 75.113281 48.039062 73.117188 48.039062 71.125 48.039062 C 66.351562 48.039062 61.542969 48.039062 56.773438 48.078125 C 50.984375 48.078125 45.238281 48.117188 39.449219 48.117188 C 34.445312 48.117188 29.476562 48.117188 24.472656 48.15625 C 22.046875 48.15625 19.621094 48.078125 17.160156 48.15625 C 17.121094 48.15625 17.082031 48.15625 17.042969 48.15625 C 15.789062 48.15625 15.789062 50.113281 17.042969 50.113281 C 19.035156 50.113281 21.03125 50.113281 23.023438 50.113281 C 27.796875 50.113281 32.605469 50.113281 37.375 50.074219 C 43.164062 50.074219 48.914062 50.035156 54.699219 50.035156 C 59.703125 50.035156 64.671875 50.035156 69.675781 49.996094 C 72.101562 49.996094 74.527344 50.074219 76.988281 49.996094 C 77.027344 49.996094 77.066406 49.996094 77.105469 49.996094 C 78.359375 49.996094 78.359375 48.039062 77.105469 48.039062 Z M 77.105469 48.039062 " fill-opacity="1" fill-rule="nonzero"/><path fill="#ffffff" d="M 75.855469 71.660156 C 73.898438 71.660156 71.945312 71.660156 69.949219 71.660156 C 65.257812 71.660156 60.605469 71.699219 55.910156 71.699219 C 50.242188 71.699219 44.609375 71.738281 38.941406 71.738281 C 34.050781 71.738281 29.164062 71.777344 24.277344 71.777344 C 21.890625 71.777344 19.503906 71.738281 17.121094 71.816406 C 17.082031 71.816406 17.042969 71.816406 17.003906 71.816406 C 15.75 71.816406 15.75 73.769531 17.003906 73.769531 C 18.957031 73.769531 20.914062 73.769531 22.90625 73.769531 C 27.601562 73.769531 32.253906 73.730469 36.945312 73.730469 C 42.617188 73.730469 48.246094 73.691406 53.917969 73.691406 C 58.804688 73.691406 63.695312 73.652344 68.582031 73.652344 C 70.96875 73.652344 73.351562 73.691406 75.738281 73.613281 C 75.777344 73.613281 75.816406 73.613281 75.855469 73.613281 C 77.105469 73.613281 77.105469 71.660156 75.855469 71.660156 Z M 75.855469 71.660156 " fill-opacity="1" fill-rule="nonzero"/><path fill="#ffffff" d="M 26.191406 77.445312 C 28.109375 77.445312 30.023438 77.445312 31.902344 77.445312 C 36.242188 77.445312 40.542969 77.445312 44.882812 77.40625 C 49.460938 77.40625 54.074219 77.40625 58.648438 77.367188 C 61.386719 77.367188 64.125 77.367188 66.859375 77.367188 C 69.636719 77.367188 72.375 77.367188 75.152344 77.367188 C 75.308594 77.367188 75.464844 77.367188 75.582031 77.367188 C 76.832031 77.367188 76.832031 75.414062 75.582031 75.414062 C 72.765625 75.414062 69.949219 75.414062 67.136719 75.414062 C 64.75 75.414062 62.402344 75.414062 60.019531 75.414062 C 55.558594 75.414062 51.0625 75.414062 46.605469 75.453125 C 42.148438 75.453125 37.648438 75.453125 33.191406 75.492188 C 30.886719 75.492188 28.578125 75.414062 26.269531 75.492188 C 26.230469 75.492188 26.191406 75.492188 26.152344 75.492188 C 24.941406 75.492188 24.941406 77.445312 26.191406 77.445312 Z M 26.191406 77.445312 " fill-opacity="1" fill-rule="nonzero"/><path fill="#ffffff" d="M 86.21875 75.375 C 85.316406 75.375 84.378906 75.375 83.480469 75.375 C 83.363281 75.375 83.207031 75.375 83.089844 75.375 C 82.582031 75.375 82.074219 75.804688 82.113281 76.351562 C 82.152344 76.898438 82.542969 77.328125 83.089844 77.328125 C 83.988281 77.328125 84.925781 77.328125 85.828125 77.328125 C 85.945312 77.328125 86.101562 77.328125 86.21875 77.328125 C 86.726562 77.328125 87.234375 76.898438 87.195312 76.351562 C 87.195312 75.84375 86.765625 75.375 86.21875 75.375 Z M 86.21875 75.375 " fill-opacity="1" fill-rule="nonzero"/><path fill="#ffffff" d="M 91.886719 77.953125 L 76.207031 77.953125 C 76.011719 77.445312 75.816406 76.898438 75.621094 76.390625 L 83.089844 76.390625 C 83.871094 71.503906 84.300781 65.832031 84.300781 59.769531 C 84.300781 54.296875 83.949219 49.09375 83.324219 44.519531 L 91.925781 44.519531 C 91.886719 44.519531 88.132812 63.523438 91.886719 77.953125 Z M 91.886719 77.953125 " fill-opacity="1" fill-rule="nonzero"/><path fill="#ffffff" d="M 132.28125 44.519531 L 113.160156 44.519531 C 110.5 55.585938 111.363281 66.730469 112.261719 72.988281 L 131.304688 72.988281 C 132.320312 72.949219 133.300781 72.558594 134.316406 72.324219 C 135.371094 72.050781 136.429688 71.777344 137.484375 71.503906 C 139.632812 70.953125 141.824219 70.445312 143.976562 69.820312 C 144.71875 69.625 145.03125 70.757812 144.289062 70.992188 C 142.097656 71.621094 139.828125 72.128906 137.640625 72.714844 C 136.546875 72.988281 135.449219 73.300781 134.355469 73.574219 C 133.378906 73.808594 132.398438 74.160156 131.382812 74.199219 L 112.496094 74.199219 C 112.886719 76.585938 113.199219 77.992188 113.199219 77.992188 L 131.539062 77.992188 C 131.539062 77.992188 162.511719 72.753906 163.644531 62.15625 C 164.542969 53.476562 132.28125 44.519531 132.28125 44.519531 Z M 134.082031 70.25 C 134.003906 70.367188 133.847656 70.523438 133.730469 70.523438 C 133.417969 70.5625 133.105469 70.679688 132.753906 70.796875 C 132.4375 70.914062 132.085938 70.992188 131.773438 70.992188 C 131.734375 70.992188 131.734375 70.992188 131.695312 70.992188 L 126.886719 70.992188 C 126.105469 70.992188 126.105469 69.78125 126.886719 69.78125 L 131.695312 69.78125 C 131.773438 69.78125 131.8125 69.78125 131.851562 69.78125 C 132.398438 69.703125 132.871094 69.46875 133.417969 69.351562 C 133.574219 69.3125 133.730469 69.351562 133.886719 69.429688 C 134.003906 69.507812 134.121094 69.625 134.160156 69.78125 C 134.160156 69.9375 134.121094 70.132812 134.082031 70.25 Z M 136.113281 49.171875 C 136.074219 49.328125 135.957031 49.445312 135.839844 49.523438 C 135.722656 49.605469 135.527344 49.644531 135.371094 49.605469 C 135.097656 49.523438 134.824219 49.367188 134.550781 49.328125 C 134.511719 49.328125 134.511719 49.328125 134.472656 49.328125 C 134.042969 49.171875 133.613281 49.015625 133.222656 48.859375 C 132.832031 48.703125 132.4375 48.546875 132.046875 48.429688 L 125.714844 48.429688 C 124.929688 48.429688 124.929688 47.21875 125.714844 47.21875 L 132.164062 47.21875 C 132.242188 47.21875 132.28125 47.21875 132.359375 47.257812 C 132.792969 47.335938 133.183594 47.53125 133.574219 47.6875 C 134.003906 47.84375 134.394531 48 134.824219 48.15625 C 134.824219 48.15625 134.863281 48.15625 134.863281 48.15625 C 135.175781 48.195312 135.449219 48.390625 135.722656 48.46875 C 135.878906 48.507812 135.996094 48.625 136.074219 48.742188 C 136.152344 48.859375 136.152344 49.015625 136.113281 49.171875 Z M 136.113281 49.171875 " fill-opacity="1" fill-rule="nonzero"/><path fill="#ffffff" d="M 111.011719 74.160156 C 111.285156 75.453125 111.597656 76.703125 111.988281 77.953125 L 92.90625 77.953125 C 92.90625 77.953125 89.542969 61.101562 92.90625 44.519531 L 111.988281 44.519531 C 111.988281 44.519531 108.46875 59.535156 110.8125 72.988281 L 104.285156 72.988281 C 103.5 72.988281 103.5 74.199219 104.285156 74.199219 L 111.011719 74.199219 Z M 111.011719 74.160156 " fill-opacity="1" fill-rule="nonzero"/><g fill="#ffffff" fill-opacity="1"><g transform="translate(194.502366, 81.272165)"><g><path d="M 35.375 -17.296875 C 35.375 -11.648438 34.164062 -7.242188 31.75 -4.078125 C 29.34375 -0.921875 25.976562 0.65625 21.65625 0.65625 C 17.832031 0.65625 14.78125 -0.8125 12.5 -3.75 L 12.078125 0 L 3.609375 0 L 3.609375 -50.03125 L 13.03125 -50.03125 L 13.03125 -32.078125 C 15.195312 -34.617188 18.050781 -35.890625 21.59375 -35.890625 C 25.894531 -35.890625 29.265625 -34.3125 31.703125 -31.15625 C 34.148438 -28 35.375 -23.550781 35.375 -17.8125 Z M 25.953125 -17.984375 C 25.953125 -21.535156 25.390625 -24.128906 24.265625 -25.765625 C 23.140625 -27.410156 21.457031 -28.234375 19.21875 -28.234375 C 16.21875 -28.234375 14.15625 -27.007812 13.03125 -24.5625 L 13.03125 -10.65625 C 14.175781 -8.175781 16.257812 -6.9375 19.28125 -6.9375 C 22.320312 -6.9375 24.320312 -8.4375 25.28125 -11.4375 C 25.726562 -12.863281 25.953125 -15.046875 25.953125 -17.984375 Z M 25.953125 -17.984375 "/></g></g></g><g fill="#ffffff" fill-opacity="1"><g transform="translate(232.053366, 81.272165)"><g><path d="M 24.03125 0 C 23.601562 -0.84375 23.289062 -1.894531 23.09375 -3.15625 C 20.8125 -0.613281 17.847656 0.65625 14.203125 0.65625 C 10.742188 0.65625 7.878906 -0.34375 5.609375 -2.34375 C 3.347656 -4.34375 2.21875 -6.863281 2.21875 -9.90625 C 2.21875 -13.632812 3.597656 -16.5 6.359375 -18.5 C 9.128906 -20.5 13.132812 -21.507812 18.375 -21.53125 L 22.703125 -21.53125 L 22.703125 -23.546875 C 22.703125 -25.171875 22.28125 -26.472656 21.4375 -27.453125 C 20.601562 -28.429688 19.285156 -28.921875 17.484375 -28.921875 C 15.898438 -28.921875 14.65625 -28.539062 13.75 -27.78125 C 12.851562 -27.019531 12.40625 -25.976562 12.40625 -24.65625 L 3 -24.65625 C 3 -26.695312 3.628906 -28.582031 4.890625 -30.3125 C 6.148438 -32.050781 7.925781 -33.414062 10.21875 -34.40625 C 12.519531 -35.394531 15.109375 -35.890625 17.984375 -35.890625 C 22.328125 -35.890625 25.769531 -34.796875 28.3125 -32.609375 C 30.863281 -30.429688 32.140625 -27.367188 32.140625 -23.421875 L 32.140625 -8.140625 C 32.160156 -4.796875 32.628906 -2.265625 33.546875 -0.546875 L 33.546875 0 Z M 16.25 -6.546875 C 17.644531 -6.546875 18.925781 -6.851562 20.09375 -7.46875 C 21.269531 -8.09375 22.140625 -8.925781 22.703125 -9.96875 L 22.703125 -16.03125 L 19.1875 -16.03125 C 14.46875 -16.03125 11.957031 -14.398438 11.65625 -11.140625 L 11.625 -10.578125 C 11.625 -9.410156 12.035156 -8.445312 12.859375 -7.6875 C 13.691406 -6.925781 14.820312 -6.546875 16.25 -6.546875 Z M 16.25 -6.546875 "/></g></g></g><g fill="#ffffff" fill-opacity="1"><g transform="translate(267.813113, 81.272165)"><g><path d="M 13.546875 0 L 4.109375 0 L 4.109375 -50.03125 L 13.546875 -50.03125 Z M 13.546875 0 "/></g></g></g><g fill="#ffffff" fill-opacity="1"><g transform="translate(285.497586, 81.272165)"><g><path d="M 24.03125 0 C 23.601562 -0.84375 23.289062 -1.894531 23.09375 -3.15625 C 20.8125 -0.613281 17.847656 0.65625 14.203125 0.65625 C 10.742188 0.65625 7.878906 -0.34375 5.609375 -2.34375 C 3.347656 -4.34375 2.21875 -6.863281 2.21875 -9.90625 C 2.21875 -13.632812 3.597656 -16.5 6.359375 -18.5 C 9.128906 -20.5 13.132812 -21.507812 18.375 -21.53125 L 22.703125 -21.53125 L 22.703125 -23.546875 C 22.703125 -25.171875 22.28125 -26.472656 21.4375 -27.453125 C 20.601562 -28.429688 19.285156 -28.921875 17.484375 -28.921875 C 15.898438 -28.921875 14.65625 -28.539062 13.75 -27.78125 C 12.851562 -27.019531 12.40625 -25.976562 12.40625 -24.65625 L 3 -24.65625 C 3 -26.695312 3.628906 -28.582031 4.890625 -30.3125 C 6.148438 -32.050781 7.925781 -33.414062 10.21875 -34.40625 C 12.519531 -35.394531 15.109375 -35.890625 17.984375 -35.890625 C 22.328125 -35.890625 25.769531 -34.796875 28.3125 -32.609375 C 30.863281 -30.429688 32.140625 -27.367188 32.140625 -23.421875 L 32.140625 -8.140625 C 32.160156 -4.796875 32.628906 -2.265625 33.546875 -0.546875 L 33.546875 0 Z M 16.25 -6.546875 C 17.644531 -6.546875 18.925781 -6.851562 20.09375 -7.46875 C 21.269531 -8.09375 22.140625 -8.925781 22.703125 -9.96875 L 22.703125 -16.03125 L 19.1875 -16.03125 C 14.46875 -16.03125 11.957031 -14.398438 11.65625 -11.140625 L 11.625 -10.578125 C 11.625 -9.410156 12.035156 -8.445312 12.859375 -7.6875 C 13.691406 -6.925781 14.820312 -6.546875 16.25 -6.546875 Z M 16.25 -6.546875 "/></g></g></g><g fill="#ffffff" fill-opacity="1"><g transform="translate(321.257334, 81.272165)"><g><path d="M 28.828125 -12.4375 C 28.828125 -14.28125 28.175781 -15.695312 26.875 -16.6875 C 25.570312 -17.675781 23.222656 -18.71875 19.828125 -19.8125 C 16.441406 -20.914062 13.765625 -22 11.796875 -23.0625 C 6.410156 -25.96875 3.71875 -29.882812 3.71875 -34.8125 C 3.71875 -37.375 4.4375 -39.660156 5.875 -41.671875 C 7.320312 -43.679688 9.394531 -45.25 12.09375 -46.375 C 14.800781 -47.507812 17.835938 -48.078125 21.203125 -48.078125 C 24.585938 -48.078125 27.601562 -47.460938 30.25 -46.234375 C 32.90625 -45.003906 34.960938 -43.269531 36.421875 -41.03125 C 37.890625 -38.800781 38.625 -36.265625 38.625 -33.421875 L 28.859375 -33.421875 C 28.859375 -35.585938 28.171875 -37.269531 26.796875 -38.46875 C 25.429688 -39.675781 23.515625 -40.28125 21.046875 -40.28125 C 18.648438 -40.28125 16.789062 -39.773438 15.46875 -38.765625 C 14.144531 -37.765625 13.484375 -36.4375 13.484375 -34.78125 C 13.484375 -33.238281 14.257812 -31.945312 15.8125 -30.90625 C 17.363281 -29.863281 19.648438 -28.890625 22.671875 -27.984375 C 28.222656 -26.304688 32.269531 -24.226562 34.8125 -21.75 C 37.351562 -19.28125 38.625 -16.195312 38.625 -12.5 C 38.625 -8.394531 37.070312 -5.175781 33.96875 -2.84375 C 30.863281 -0.507812 26.6875 0.65625 21.4375 0.65625 C 17.78125 0.65625 14.453125 -0.0078125 11.453125 -1.34375 C 8.460938 -2.6875 6.179688 -4.519531 4.609375 -6.84375 C 3.035156 -9.164062 2.25 -11.859375 2.25 -14.921875 L 12.046875 -14.921875 C 12.046875 -9.679688 15.175781 -7.0625 21.4375 -7.0625 C 23.757812 -7.0625 25.570312 -7.535156 26.875 -8.484375 C 28.175781 -9.429688 28.828125 -10.75 28.828125 -12.4375 Z M 28.828125 -12.4375 "/></g></g></g><g fill="#ffffff" fill-opacity="1"><g transform="translate(362.260549, 81.272165)"><g><path d="M 32.765625 -20.546875 L 14 -20.546875 L 14 -7.84375 L 36.015625 -7.84375 L 36.015625 0 L 4.234375 0 L 4.234375 -47.421875 L 35.953125 -47.421875 L 35.953125 -39.5 L 14 -39.5 L 14 -28.203125 L 32.765625 -28.203125 Z M 32.765625 -20.546875 "/></g></g></g><g fill="#ffffff" fill-opacity="1"><g transform="translate(399.778972, 81.272165)"><g><path d="M 43.1875 -22.640625 C 43.1875 -17.972656 42.359375 -13.878906 40.703125 -10.359375 C 39.054688 -6.835938 36.695312 -4.117188 33.625 -2.203125 C 30.550781 -0.296875 27.03125 0.65625 23.0625 0.65625 C 19.132812 0.65625 15.628906 -0.285156 12.546875 -2.171875 C 9.460938 -4.066406 7.070312 -6.765625 5.375 -10.265625 C 3.675781 -13.773438 2.816406 -17.8125 2.796875 -22.375 L 2.796875 -24.71875 C 2.796875 -29.382812 3.632812 -33.492188 5.3125 -37.046875 C 7 -40.597656 9.378906 -43.320312 12.453125 -45.21875 C 15.523438 -47.125 19.035156 -48.078125 22.984375 -48.078125 C 26.941406 -48.078125 30.457031 -47.125 33.53125 -45.21875 C 36.601562 -43.320312 38.976562 -40.597656 40.65625 -37.046875 C 42.34375 -33.492188 43.1875 -29.394531 43.1875 -24.75 Z M 33.28125 -24.78125 C 33.28125 -29.757812 32.390625 -33.539062 30.609375 -36.125 C 28.828125 -38.707031 26.289062 -40 23 -40 C 19.71875 -40 17.1875 -38.722656 15.40625 -36.171875 C 13.625 -33.617188 12.722656 -29.878906 12.703125 -24.953125 L 12.703125 -22.640625 C 12.703125 -17.796875 13.59375 -14.035156 15.375 -11.359375 C 17.15625 -8.691406 19.71875 -7.359375 23.0625 -7.359375 C 26.34375 -7.359375 28.859375 -8.644531 30.609375 -11.21875 C 32.367188 -13.789062 33.257812 -17.539062 33.28125 -22.46875 Z M 33.28125 -24.78125 "/></g></g></g></svg>