<svg width="661.2" height="68.704" viewBox="0 0 661.2 68.704" xmlns="http://www.w3.org/2000/svg"><g id="svgGroup" stroke-linecap="round" fill-rule="evenodd" font-size="9pt" stroke="#000000" stroke-width="0" fill="#878787" style="stroke:#000000;stroke-width:0;fill:#878787"><path d="M 82.2 68.702 L 116.4 68.702 L 116.4 56.902 L 82.2 56.902 C 75.768 56.902 72.464 54.121 72.046 49.45 A 11.754 11.754 0 0 1 72 48.402 C 72 42.902 75.5 40.202 82.3 40.202 L 115.8 40.202 L 115.8 29.502 L 82.6 29.502 C 76.444 29.502 72.993 27.453 72.394 22.985 A 11.169 11.169 0 0 1 72.3 21.502 A 9.149 9.149 0 0 1 73.236 17.226 C 74.628 14.561 77.619 13.002 82.5 13.002 L 116.3 13.002 L 116.3 1.202 L 82.5 1.202 C 66.6 1.202 59.9 8.802 59.9 19.602 A 19.912 19.912 0 0 0 60.811 25.812 C 62.149 29.899 64.955 32.909 69.197 34.717 A 19.267 19.267 0 0 0 69.4 34.802 A 14.814 14.814 0 0 0 60.239 45.416 A 21.099 21.099 0 0 0 59.7 50.302 C 59.7 60.802 66.2 68.702 82.2 68.702 Z M 221.8 68.702 L 256 68.702 L 256 56.902 L 221.8 56.902 C 215.368 56.902 212.064 54.121 211.646 49.45 A 11.754 11.754 0 0 1 211.6 48.402 C 211.6 42.902 215.1 40.202 221.9 40.202 L 255.4 40.202 L 255.4 29.502 L 222.2 29.502 C 216.044 29.502 212.593 27.453 211.994 22.985 A 11.169 11.169 0 0 1 211.9 21.502 A 9.149 9.149 0 0 1 212.836 17.226 C 214.228 14.561 217.219 13.002 222.1 13.002 L 255.9 13.002 L 255.9 1.202 L 222.1 1.202 C 206.2 1.202 199.5 8.802 199.5 19.602 A 19.912 19.912 0 0 0 200.411 25.812 C 201.749 29.899 204.555 32.909 208.797 34.717 A 19.267 19.267 0 0 0 209 34.802 A 14.814 14.814 0 0 0 199.839 45.416 A 21.099 21.099 0 0 0 199.3 50.302 C 199.3 60.802 205.8 68.702 221.8 68.702 Z M 150.8 40.102 L 166.5 40.102 C 171.722 40.102 174.569 41.685 175.963 43.956 A 8.596 8.596 0 0 1 177.1 48.502 C 177.1 53.134 174.508 56.516 168.816 56.871 A 16.322 16.322 0 0 1 167.8 56.902 L 129.8 56.902 L 129.8 68.702 L 167.4 68.702 A 32.074 32.074 0 0 0 175.243 67.816 C 184.086 65.585 188.177 59.325 188.812 51.22 A 29.705 29.705 0 0 0 188.9 48.902 C 188.9 39.546 184.9 29.724 168.104 29.04 A 46.762 46.762 0 0 0 166.2 29.002 L 150.4 29.002 C 142.5 29.002 140.4 25.102 140.4 21.002 C 140.4 16.302 143.1 13.002 149.2 13.002 L 183.8 13.002 L 183.8 1.202 L 149.6 1.202 A 31.217 31.217 0 0 0 141.955 2.067 C 133.375 4.235 129.354 10.302 128.697 18.197 A 29.024 29.024 0 0 0 128.6 20.602 C 128.6 29.663 132.502 39.374 148.906 40.063 A 45.16 45.16 0 0 0 150.8 40.102 Z M 271.1 1.202 L 271.1 13.002 L 308.1 13.002 A 12.113 12.113 0 0 1 311.71 13.508 C 315.685 14.746 317.5 18.105 317.5 21.902 C 317.5 26.431 315.096 30.783 309.194 31.259 A 13.615 13.615 0 0 1 308.1 31.302 L 281.8 31.302 A 17.957 17.957 0 0 0 277.802 31.697 C 273.328 32.725 271.287 35.812 271.203 41.623 A 26.21 26.21 0 0 0 271.2 42.002 L 271.2 68.702 L 283 68.702 L 283 44.302 A 2.596 2.596 0 0 1 283.071 43.666 C 283.259 42.922 283.819 42.602 284.7 42.602 L 302.3 42.602 L 317.7 68.702 L 330.8 68.702 L 315.1 41.702 C 324.478 39.061 328.633 31.365 329.302 23.668 A 26.184 26.184 0 0 0 329.4 21.402 C 329.4 11.403 323.829 2.605 310.942 1.354 A 33.554 33.554 0 0 0 307.7 1.202 L 271.1 1.202 Z M 377.5 14.402 L 398 68.702 L 411.1 68.702 L 388.3 8.702 A 14.742 14.742 0 0 0 385.834 4.378 C 383.205 1.269 379.386 0.002 374.3 0.002 A 22.219 22.219 0 0 0 369.164 0.538 C 365.437 1.425 362.698 3.468 360.842 7.064 A 18.213 18.213 0 0 0 360.1 8.702 L 336.4 68.702 L 349.4 68.702 L 370.8 14.402 A 4.731 4.731 0 0 1 371.444 13.313 C 372.072 12.538 372.899 12.157 373.956 12.107 A 5.192 5.192 0 0 1 374.2 12.102 C 375.526 12.102 376.509 12.583 377.148 13.659 A 4.645 4.645 0 0 1 377.5 14.402 Z M 570.4 14.402 L 590.9 68.702 L 604 68.702 L 581.2 8.702 A 14.742 14.742 0 0 0 578.734 4.378 C 576.105 1.269 572.286 0.002 567.2 0.002 A 22.219 22.219 0 0 0 562.064 0.538 C 558.337 1.425 555.598 3.468 553.742 7.064 A 18.213 18.213 0 0 0 553 8.702 L 529.3 68.702 L 542.3 68.702 L 563.7 14.402 A 4.731 4.731 0 0 1 564.344 13.313 C 564.972 12.538 565.799 12.157 566.856 12.107 A 5.192 5.192 0 0 1 567.1 12.102 C 568.426 12.102 569.409 12.583 570.048 13.659 A 4.645 4.645 0 0 1 570.4 14.402 Z M 445.2 68.702 L 471.3 68.702 L 471.3 56.902 L 445.2 56.902 A 26.603 26.603 0 0 1 437.776 55.978 C 430.602 53.887 427.103 48.16 426.572 37.9 A 56.088 56.088 0 0 1 426.5 35.002 C 426.5 21.842 430.609 15.169 439.806 13.455 A 29.501 29.501 0 0 1 445.2 13.002 L 471.3 13.002 L 471.3 1.202 L 445.2 1.202 C 426.205 1.202 415.382 11.627 414.731 32.932 A 67.842 67.842 0 0 0 414.7 35.002 A 52.444 52.444 0 0 0 416.124 47.772 C 419.652 61.791 429.655 68.702 445.2 68.702 Z M 0 1.202 L 0 13.002 L 19.7 13.002 L 19.7 68.702 L 31.6 68.702 L 31.6 13.002 L 51.3 13.002 L 51.3 1.202 L 0 1.202 Z M 480.1 1.202 L 480.1 13.002 L 499.8 13.002 L 499.8 68.702 L 511.7 68.702 L 511.7 13.002 L 531.4 13.002 L 531.4 1.202 L 480.1 1.202 Z M 609.4 1.202 L 609.4 45.402 A 27.094 27.094 0 0 0 611.91 57.508 C 615.004 63.732 621.112 67.87 631.089 68.59 A 44.659 44.659 0 0 0 634.3 68.702 L 661.2 68.702 L 661.2 56.902 L 635 56.902 A 24.919 24.919 0 0 1 630.362 56.506 C 623.766 55.253 621.424 51.152 621.215 46.071 A 18.803 18.803 0 0 1 621.2 45.302 L 621.2 1.202 L 609.4 1.202 Z" vector-effect="non-scaling-stroke"/></g></svg>